<svg version="1.1" viewBox="0.0 0.0 720.0 720.0" fill="none" stroke="none" stroke-linecap="square" stroke-miterlimit="10" xmlns:xlink="http://www.w3.org/1999/xlink" xmlns="http://www.w3.org/2000/svg"><clipPath id="p.0"><path d="m0 0l720.0 0l0 720.0l-720.0 0l0 -720.0z" clip-rule="nonzero"/></clipPath><g clip-path="url(#p.0)"><path fill="#000000" fill-opacity="0.0" d="m0 0l720.0 0l0 720.0l-720.0 0z" fill-rule="evenodd"/><path fill="#000000" fill-opacity="0.0" d="m488.58792 703.2598l-478.2992 -119.57477l0 -447.37012l478.2992 -119.5748z" fill-rule="evenodd"/><path stroke="#ffffff" stroke-width="12.0" stroke-linejoin="round" stroke-linecap="butt" d="m488.58792 703.2598l-478.2992 -119.57477l0 -447.37012l478.2992 -119.5748z" fill-rule="evenodd"/><path fill="#ffffff" d="m488.58792 711.80316l221.16537 -101.61444l0 -500.3617l-221.16537 -101.61442z" fill-rule="evenodd"/><path fill="#000000" fill-opacity="0.0" d="m0 8.212599l699.46454 0l0 703.5906l-699.46454 0z" fill-rule="evenodd"/><path fill="#ffffff" d="m24.484375 189.81477q0 -2.640625 2.46875 -2.640625l16.546875 0q2.28125 0 2.28125 2.640625l0 109.999985q0 1.9375 1.765625 1.9375l59.484375 0q2.46875 0 2.46875 2.109375l0 11.625q0 1.046875 -0.625 1.671875q-0.609375 0.609375 -1.84375 0.609375l-79.546875 0q-1.765625 0 -2.390625 -0.703125q-0.609375 -0.703125 -0.609375 -2.109375l0 -125.14061l0 0zm126.3757 -2.640625q2.28125 0 2.28125 2.640625l0 124.60936q0 1.9375 -0.796875 2.640625q-0.78125 0.703125 -2.890625 0.703125l-14.4375 0q-1.9375 0 -2.5625 -0.609375q-0.609375 -0.625 -0.609375 -2.203125l0 -125.14061q0 -2.640625 2.46875 -2.640625l16.546875 0zm36.244904 130.59373q-2.8125 0 -2.8125 -2.984375l0 -124.968735q0 -2.640625 2.46875 -2.640625l23.0625 0q1.578125 0 2.28125 0.4375q0.703125 0.4375 1.0625 1.671875l35.1875 92.406235q0.703125 1.578125 1.40625 1.5q0.703125 -0.09375 1.234375 -1.671875l34.671875 -91.531235q1.0625 -2.8125 3.171875 -2.8125l23.9375 0q2.28125 0 2.28125 2.640625l0 124.781235q0 3.171875 -3.15625 3.171875l-15.140625 0q-1.578125 0 -2.296875 -0.609375q-0.703125 -0.625 -0.703125 -2.203125l0 -96.45311q0 -1.046875 -0.4375 -0.875q-0.4375 0.171875 -0.609375 1.046875l-36.265625 96.624985q-0.875 2.46875 -3.34375 2.46875l-10.546875 0q-2.828125 0 -3.703125 -2.28125l-35.546875 -95.749985q-0.53125 -1.0625 -0.890625 -1.0625q-0.34375 0 -0.34375 1.0625l0 95.562485q0 1.234375 -0.53125 1.859375q-0.53125 0.609375 -2.109375 0.609375l-12.328125 0l0 0zm177.94724 -130.59373q2.28125 0 2.28125 2.640625l0 124.60936q0 1.9375 -0.796875 2.640625q-0.78125 0.703125 -2.890625 0.703125l-14.4375 0q-1.9375 0 -2.5625 -0.609375q-0.609375 -0.625 -0.609375 -2.203125l0 -125.14061q0 -2.640625 2.46875 -2.640625l16.546875 0zm24.807404 2.46875q0 -1.234375 0.609375 -1.84375q0.625 -0.625 2.03125 -0.625l96.625 0q1.40625 0 1.9375 0.625q0.53125 0.609375 0.53125 1.84375l0 11.265625q0 2.109375 -2.46875 2.109375l-34.84375 0q-1.9375 0 -1.9375 1.578125l0 110.531235q0 2.640625 -2.28125 2.640625l-16.546875 0q-2.296875 0 -2.296875 -2.46875l0 -110.343735q0 -1.9375 -1.9375 -1.9375l-36.953125 0q-2.46875 0 -2.46875 -2.109375l0 -11.265625z" fill-rule="nonzero"/><path fill="#ffffff" d="m24.484375 401.0147q0 -2.640625 2.46875 -2.640625l16.546875 0q2.28125 0 2.28125 2.640625l0 110.0q0 1.9375 1.765625 1.9375l59.484375 0q2.46875 0 2.46875 2.109375l0 11.625q0 1.046875 -0.625 1.671875q-0.609375 0.609375 -1.84375 0.609375l-79.546875 0q-1.765625 0 -2.390625 -0.703125q-0.609375 -0.703125 -0.609375 -2.109375l0 -125.140625l0 0zm81.83908 -0.171875q0 -1.234375 0.609375 -1.84375q0.625 -0.625 2.03125 -0.625l96.625 0q1.40625 0 1.9375 0.625q0.53125 0.609375 0.53125 1.84375l0 11.265625q0 2.109375 -2.46875 2.109375l-34.84375 0q-1.9375 0 -1.9375 1.578125l0 110.53125q0 2.640625 -2.28125 2.640625l-16.546875 0q-2.296875 0 -2.296875 -2.46875l0 -110.34375q0 -1.9375 -1.9375 -1.9375l-36.953125 0q-2.46875 0 -2.46875 -2.109375l0 -11.265625zm127.081085 -2.46875q1.9375 0 6.25 0q4.3125 0 9.328125 0.09375q5.015625 0.078125 9.328125 0.078125q4.3125 0 6.421875 0q24.109375 0.359375 39.234375 8.015625q15.140625 7.65625 22.265625 21.734375q7.140625 14.078125 7.140625 34.5q0 21.46875 -7.65625 36.25q-7.65625 14.78125 -23.234375 22.359375q-15.578125 7.5625 -39.34375 7.5625l-29.5625 0q-3.171875 0 -3.171875 -3.171875l0 -124.609375q0 -1.578125 0.703125 -2.1875q0.703125 -0.625 2.296875 -0.625l0 0zm20.0625 15.671875q-1.765625 0 -1.765625 2.453125l0 94.875q0 2.109375 2.109375 2.109375l5.8125 0q17.78125 0 29.21875 -4.921875q11.4375 -4.9375 16.890625 -15.9375q5.453125 -11.0 5.453125 -29.125q0 -18.65625 -5.453125 -29.390625q-5.453125 -10.734375 -16.625 -15.390625q-11.171875 -4.671875 -28.421875 -4.671875l-7.21875 0l0 0z" fill-rule="nonzero"/></g></svg>